<svg xmlns="http://www.w3.org/2000/svg" viewBox="0 0 64 64" role="img" aria-labelledby="title">
  <title id="title">SparkleReleaseKit logo</title>
  <rect width="64" height="64" rx="14" fill="#161719"/>
  <path d="M18 19h20a8 8 0 0 1 8 8v3h3a3 3 0 0 1 3 3v2a3 3 0 0 1-3 3h-3v3a8 8 0 0 1-8 8H18a8 8 0 0 1-8-8V27a8 8 0 0 1 8-8Z" fill="none" stroke="#ff4557" stroke-width="4"/>
  <path d="M21 28h14a4 4 0 0 1 4 4v4a4 4 0 0 1-4 4H21a4 4 0 0 1-4-4v-4a4 4 0 0 1 4-4Z" fill="#ff4557"/>
  <path d="m48 10 1.7 4.3L54 16l-4.3 1.7L48 22l-1.7-4.3L42 16l4.3-1.7L48 10Z" fill="#58d68d"/>
</svg>
