<svg xmlns="http://www.w3.org/2000/svg" viewBox="0 0 64 64" role="img" aria-labelledby="title">
  <title id="title">SparkleReleaseKit verified release mark</title>
  <rect width="64" height="64" rx="14" fill="#121a20"/>
  <path d="M13 30A19 19 0 0 1 44 16" fill="none" stroke="#62e2c2" stroke-width="4" stroke-linecap="round"/>
  <path d="M43 10v9h-9" fill="none" stroke="#62e2c2" stroke-width="4" stroke-linecap="round" stroke-linejoin="round"/>
  <path d="M51 34A19 19 0 0 1 20 48" fill="none" stroke="#6eb5ff" stroke-width="4" stroke-linecap="round"/>
  <path d="M21 54v-9h9" fill="none" stroke="#6eb5ff" stroke-width="4" stroke-linecap="round" stroke-linejoin="round"/>
  <path d="m24 26 8-4.5 8 4.5v10l-8 4.5-8-4.5Z" fill="#eaf8f5" stroke="#0b1014" stroke-width="2" stroke-linejoin="round"/>
  <path d="m24 26 8 4.5 8-4.5M32 30.5v10" fill="none" stroke="#3b7272" stroke-width="2" stroke-linejoin="round"/>
  <path d="m51 7 1.6 4.4L57 13l-4.4 1.6L51 19l-1.6-4.4L45 13l4.4-1.6Z" fill="#ff806c"/>
</svg>
